Motion_kv09_l
version=1
nRows=5
nColumns=43
inDegrees=yes
endheader
time	pelvis_tilt	pelvis_list	pelvis_rotation	pelvis_tx	pelvis_ty	pelvis_tz	hip_flexion_r	hip_adduction_r	hip_rotation_r	knee_angle_r	ankle_angle_r	subtalar_angle_r	mtp_angle_r	hip_flexion_l	hip_adduction_l	hip_rotation_l	knee_angle_l	ankle_angle_l	subtalar_angle_l	mtp_angle_l	lumbar_extension	lumbar_bending	lumbar_rotation	neck_flexion	neck_lateral_bending	neck_rotation	arm_flex_r	arm_add_r	arm_rot_r	elbow_flex_r	pro_sup_r	wrist_flex_r	wrist_dev_r	hand_finger_flex_r	arm_flex_l	arm_add_l	arm_rot_l	elbow_flex_l	pro_sup_l	wrist_flex_l	wrist_dev_l	hand_finger_flex_l
      0.85500000	     -1.70400383	    -25.26474669	     84.61247506	     -0.01168287	      0.70893746	      1.99864969	     76.59095125	      0.00914484	     -3.35871948	    -88.10037132	     27.55564327	    -16.79066130	     -2.39273083	     75.39733800	     -5.29052056	     -1.32503927	    -91.26807253	     24.63285411	     -0.09617957	     19.06564370	    -33.96627296	     -2.42262333	      4.42851416	     55.64235062	     -0.90551376	     -7.07580631	    130.85791010	    -19.63567846	     15.84453667	     48.85778845	    155.01485888	     12.41220218	    -16.91287228	     68.94172515	    136.78867385	    -21.22677596	     28.28819140	     35.94042749	    137.90416731	      6.75467678	    -11.95698694	     72.83793823
      0.85750000	     -1.66880058	    -25.22073357	     84.62827521	     -0.01159505	      0.71097129	      1.99656681	     76.18829808	      0.14643729	     -3.25235007	    -87.78920400	     27.48339419	    -16.95231487	     -2.53705518	     75.03389487	     -5.11546697	     -1.19704887	    -91.00837724	     24.50114947	     -0.46858993	     18.87991895	    -33.79720947	     -2.39683650	      4.45460850	     55.40856340	     -0.94669162	     -7.12832671	    130.02838548	    -19.93110782	     15.90335932	     49.48407852	    154.64003298	     12.29890331	    -16.75919620	     69.04750212	    135.78777576	    -21.43654363	     27.70027082	     36.81828840	    138.19823504	      6.77585402	    -11.95642123	     72.92761678
      0.86000000	     -1.64676816	    -25.10535281	     84.62017665	     -0.01146357	      0.71286303	      1.99445113	     75.76997865	      0.24889462	     -3.16374392	    -87.58073379	     27.31934315	    -16.97879083	     -2.60397935	     74.65220795	     -4.97528867	     -1.06025091	    -90.85416386	     24.27970273	     -0.58978935	     18.80078860	    -33.63155715	     -2.40242100	      4.46005739	     54.68489335	     -1.00071479	     -7.10653232	    129.21342718	    -20.15109589	     15.97731913	     49.88849479	    154.49649703	     12.31795898	    -16.76728824	     69.14166412	    134.97193339	    -21.58501852	     27.57363180	     37.27561122	    138.30539876	      6.85112483	    -12.00058748	     73.00025041
      0.86250000	     -1.55016756	    -25.09489882	     84.63103474	     -0.01172403	      0.71509418	      1.99213219	     75.36950777	      0.37528098	     -3.11216392	    -87.24259158	     27.10019418	    -17.25644565	     -2.90632883	     74.31860663	     -4.82317049	     -0.91483266	    -90.60260569	     23.95984606	     -1.20654319	     18.47752484	    -33.38249526	     -2.24326845	      4.61068661	     54.27865625	     -1.20412106	     -7.14677316	    128.19265283	    -20.18955787	     15.64399117	     50.58775167	    154.38536073	     12.08170052	    -16.03290499	     69.50863106	    133.42618625	    -21.63453191	     25.77695423	     38.49930439	    139.64617818	      6.92075922	    -11.24479954	     73.23558317
      0.86500000	     -1.50256919	    -25.00054123	     84.65034739	     -0.01159716	      0.71739483	      1.98976185	     74.87209144	      0.48714236	     -3.02621067	    -86.92679063	     27.02847763	    -17.26544977	     -2.94585691	     73.88369880	     -4.72428809	     -0.79453554	    -90.34675732	     23.79860833	     -1.21934962	     18.43343912	    -33.21230509	     -2.23152992	      4.65344672	     53.64944848	     -1.18772420	     -7.16153123	    127.25568192	    -20.49148481	     15.62265617	     51.18138241	    154.25586301	     12.10841957	    -16.18488419	     69.62253619	    132.53371504	    -21.80363924	     25.69121133	     39.08580526	    139.69757498	      7.05806661	    -11.47214599	     73.30493127
